<svg xmlns="http://www.w3.org/2000/svg" xmlns:xlink="http://www.w3.org/1999/xlink" version="1.1" x="0px" y="0px" viewBox="0 0 512 640" enable-background="new 0 0 512 512" xml:space="preserve"><g><path d="M448,383.996H181.336c-5.883,0-10.672-4.781-10.672-10.656c0-5.891,4.789-10.688,10.672-10.688H448l64-234.656H128.844   l-18.18-66.805l-0.008,0.008c-1.125-4.141-4.664-7.273-9.023-7.789v-0.008L11.93,42.738l-0.008,0.008   c-0.406-0.055-0.828-0.086-1.258-0.086C4.773,42.66,0,47.441,0,53.332c0,5.461,4.109,9.961,9.406,10.586l82.562,9.82   l73.953,271.539c-9.883,5.438-16.586,15.969-16.586,28.062c0,16.062,11.828,29.344,27.258,31.641   c-3.766,6.359-5.93,13.766-5.93,21.672c0,23.562,19.102,42.688,42.672,42.688c23.562,0,42.664-19.125,42.664-42.688   c0-7.766-2.094-15.047-5.719-21.312h96.781c-3.641,6.266-5.719,13.547-5.719,21.312c0,23.562,19.094,42.688,42.656,42.688   s42.656-19.125,42.656-42.688c0-7.766-2.078-15.047-5.719-21.312H448c5.891,0,10.656-4.781,10.656-10.688   C458.656,388.777,453.891,383.996,448,383.996z M298.656,341.34h-49.469l-8-53.344h57.469V341.34z M298.656,266.66h-60.672   l-8-53.328h68.672V266.66z M422.047,149.332h62.016l-11.625,42.664h-56.797L422.047,149.332z M412.438,213.332h54.188   l-14.562,53.328h-47.625L412.438,213.332z M446.25,287.996l-14.547,53.344H393.25l8-53.344H446.25z M320,149.332h80.469   l-6.406,42.664H320V149.332z M320,213.332h70.875l-8,53.328H320V213.332z M320,287.996h59.672l-8,53.344H320V287.996z    M298.656,149.332v42.664h-71.867l-6.406-42.664H298.656z M227.617,341.34h-40.656l-14.547-53.344h47.203L227.617,341.34z    M198.812,149.332l6.398,42.664h-58.979l-11.638-42.664H198.812z M152.055,213.332h56.359l8,53.328h-49.82L152.055,213.332z    M213.336,447.996c-11.766,0-21.336-9.562-21.336-21.344c0-11.75,9.57-21.312,21.336-21.312c11.758,0,21.328,9.562,21.328,21.312   C234.664,438.434,225.094,447.996,213.336,447.996z M384,447.996c-11.766,0-21.344-9.562-21.344-21.344   c0-11.75,9.578-21.312,21.344-21.312s21.344,9.562,21.344,21.312C405.344,438.434,395.766,447.996,384,447.996z"/><path d="M384,437.34c5.891,0,10.656-4.781,10.656-10.688c0-5.875-4.766-10.656-10.656-10.656s-10.656,4.781-10.656,10.656   C373.344,432.559,378.109,437.34,384,437.34z"/><path d="M213.336,437.34c5.891,0,10.664-4.781,10.664-10.688c0-5.875-4.773-10.656-10.664-10.656s-10.672,4.781-10.672,10.656   C202.664,432.559,207.445,437.34,213.336,437.34z"/></g><text x="0" y="527" fill="#000000" font-size="5px" font-weight="bold" font-family="'Helvetica Neue', Helvetica, Arial-Unicode, Arial, Sans-serif">Created by lastspark</text><text x="0" y="532" fill="#000000" font-size="5px" font-weight="bold" font-family="'Helvetica Neue', Helvetica, Arial-Unicode, Arial, Sans-serif">from the Noun Project</text></svg>