<svg xmlns="http://www.w3.org/2000/svg" version="1.1" viewBox="-5.0 -10.0 110.0 135.0">
 <path d="m82.5 50c0-17.922-14.578-32.5-32.5-32.5s-32.5 14.578-32.5 32.5c0 5.25 1.2812 10.461 3.7109 15.078l-2.1797 15.238 13.27-3.0586c5.2695 3.4297 11.379 5.2383 17.699 5.2383 17.922 0.003906 32.5-14.574 32.5-32.496zm-50.148-5.9492c-1.6406-8.2109 2.9492-11 5.8398-11.93 1.1914-0.37891 2.5 0.23047 3 1.3984l2.9297 6.8398c0.57031 1.3281 0.25 2.8984-0.80078 3.8984l-2.1602 2.0703c2.2617 7.4492 10.449 11.75 11.93 12.469l2.1797-2.1602c0.94141-0.94141 2.3594-1.2617 3.6211-0.82031l7.4414 2.5898c1.0781 0.37891 1.7812 1.4414 1.6602 2.5391-0.35938 3.3008-2.6914 5.1484-4.5781 6.1289-1.1719 0.60156-2.4883 0.91016-3.8281 0.91016-0.51953 0-1.0312-0.050781-1.5508-0.14062-21.895-3.9219-25.656-23.594-25.684-23.793z"/>
<text x="0.0" y="117.5" font-size="5.0" font-weight="bold" font-family="Arbeit Regular, Helvetica, Arial-Unicode, Arial, Sans-serif" fill="#000000">Created by sureya</text><text x="0.0" y="122.5" font-size="5.0" font-weight="bold" font-family="Arbeit Regular, Helvetica, Arial-Unicode, Arial, Sans-serif" fill="#000000">from Noun Project</text></svg>