<svg xmlns="http://www.w3.org/2000/svg" version="1.1" viewBox="-5.0 -10.0 110.0 135.0">
 <path d="m30.871 85.809h38.262c9.1211 0 16.531-7.4219 16.531-16.531l-0.003906-38.547c0-9.1211-7.4219-16.531-16.531-16.531h-38.258c-9.1211 0-16.531 7.4219-16.531 16.531v38.551c0 9.1094 7.4219 16.527 16.531 16.527zm-10.531-55.078c0-5.8086 4.7188-10.531 10.531-10.531h38.262c5.8086 0 10.531 4.7188 10.531 10.531v38.551c0 5.8086-4.7188 10.531-10.531 10.531l-38.262-0.003906c-5.8086 0-10.531-4.7188-10.531-10.531z"/>
 <path d="m50 67.539c9.6719 0 17.539-7.8711 17.539-17.539 0-9.6719-7.8672-17.539-17.539-17.539s-17.539 7.8672-17.539 17.539 7.8672 17.539 17.539 17.539zm0-29.078c6.3594 0 11.539 5.1797 11.539 11.539s-5.1797 11.539-11.539 11.539-11.539-5.1797-11.539-11.539 5.1797-11.539 11.539-11.539z"/>
 <path d="m70.66 26.242c5.9023 2.4453 2.2344 11.293-3.668 8.8516-5.8984-2.4453-2.2344-11.297 3.668-8.8516"/>
<text x="0.0" y="117.5" font-size="5.0" font-weight="bold" font-family="Arbeit Regular, Helvetica, Arial-Unicode, Arial, Sans-serif" fill="#000000">Created by Fharaz</text><text x="0.0" y="122.5" font-size="5.0" font-weight="bold" font-family="Arbeit Regular, Helvetica, Arial-Unicode, Arial, Sans-serif" fill="#000000">from Noun Project</text></svg>